<svg width="11" height="11" viewBox="0 0 11 11" fill="none" xmlns="http://www.w3.org/2000/svg">
<path d="M4.29688 5.01199C4.48672 5.01199 4.64062 4.86722 4.64062 4.68863C4.64062 4.51005 4.48672 4.36528 4.29688 4.36528C4.10703 4.36528 3.95312 4.51005 3.95312 4.68863C3.95312 4.86722 4.10703 5.01199 4.29688 5.01199Z" fill="white"/>
<path d="M6.70312 5.01199C6.89297 5.01199 7.04688 4.86722 7.04688 4.68863C7.04688 4.51005 6.89297 4.36528 6.70312 4.36528C6.51328 4.36528 6.35938 4.51005 6.35938 4.68863C6.35938 4.86722 6.51328 5.01199 6.70312 5.01199Z" fill="white"/>
<path d="M9.28125 8.73054L8.02227 7.76048L6.75898 8.73054L5.5 7.76048L4.24102 8.73054L2.97773 7.76048L1.71875 8.73054V4.8503C1.71875 3.90695 2.11713 3.00224 2.82625 2.3352C3.53537 1.66815 4.49715 1.29341 5.5 1.29341C6.50285 1.29341 7.46463 1.66815 8.17375 2.3352C8.88287 3.00224 9.28125 3.90695 9.28125 4.8503V8.73054Z" stroke="white" stroke-linecap="round" stroke-linejoin="round"/>
</svg>
