<svg width="78" height="13" viewBox="0 0 78 13" fill="none" xmlns="http://www.w3.org/2000/svg">
<path d="M19.3878 6.12358C19.3395 5.9446 19.2685 5.78693 19.1747 5.65057C19.081 5.51136 18.9659 5.39347 18.8295 5.29688C18.6932 5.20028 18.5369 5.12784 18.3608 5.07955C18.1847 5.02841 17.9915 5.00284 17.7812 5.00284C17.358 5.00284 16.9915 5.10511 16.6818 5.30966C16.375 5.5142 16.1378 5.8125 15.9702 6.20455C15.8026 6.59375 15.7188 7.06676 15.7188 7.62358C15.7188 8.18324 15.7997 8.66051 15.9616 9.0554C16.1236 9.45028 16.358 9.75142 16.6648 9.95881C16.9716 10.1662 17.3438 10.2699 17.7812 10.2699C18.1676 10.2699 18.4943 10.2074 18.7614 10.0824C19.0313 9.95455 19.2358 9.77415 19.375 9.54119C19.5142 9.30824 19.5838 9.03409 19.5838 8.71875L19.9759 8.76562H17.8537V7.22727H21.6165V8.3821C21.6165 9.16335 21.4503 9.83239 21.1179 10.3892C20.7884 10.946 20.3338 11.3736 19.7543 11.6719C19.1776 11.9702 18.5142 12.1193 17.7642 12.1193C16.9318 12.1193 16.2003 11.9389 15.5696 11.5781C14.9389 11.2173 14.4474 10.7031 14.0952 10.0355C13.7429 9.36506 13.5668 8.5696 13.5668 7.64915C13.5668 6.93324 13.6733 6.2983 13.8864 5.74432C14.0994 5.1875 14.3963 4.71591 14.777 4.32955C15.1605 3.94318 15.6037 3.65057 16.1065 3.4517C16.6122 3.25284 17.1563 3.15341 17.7386 3.15341C18.2443 3.15341 18.7145 3.22585 19.1491 3.37074C19.5866 3.51562 19.973 3.72017 20.3082 3.98438C20.6463 4.24858 20.9205 4.5625 21.1307 4.92614C21.3409 5.28977 21.4716 5.68892 21.5227 6.12358H19.3878ZM25.9194 12.1236C25.2347 12.1236 24.6438 11.9886 24.1467 11.7188C23.6523 11.446 23.2717 11.0582 23.0046 10.5554C22.7404 10.0497 22.6083 9.44886 22.6083 8.75284C22.6083 8.0767 22.7418 7.4858 23.0089 6.98011C23.2759 6.47159 23.6523 6.0767 24.1381 5.79545C24.6239 5.51136 25.1964 5.36932 25.8555 5.36932C26.3214 5.36932 26.7475 5.44176 27.1339 5.58665C27.5202 5.73153 27.854 5.94602 28.1353 6.23011C28.4165 6.5142 28.6353 6.86506 28.7915 7.28267C28.9478 7.69744 29.0259 8.1733 29.0259 8.71023V9.23011H23.337V8.01989H27.087C27.0842 7.7983 27.0316 7.60085 26.9293 7.42756C26.8271 7.25426 26.6864 7.11932 26.5075 7.02273C26.3313 6.9233 26.1282 6.87358 25.8981 6.87358C25.6651 6.87358 25.4563 6.92614 25.2717 7.03125C25.087 7.13352 24.9407 7.27415 24.8327 7.45312C24.7248 7.62926 24.668 7.82955 24.6623 8.05398V9.28551C24.6623 9.55256 24.7148 9.78693 24.82 9.98864C24.9251 10.1875 25.0742 10.3423 25.2674 10.4531C25.4606 10.5639 25.6907 10.6193 25.9577 10.6193C26.1424 10.6193 26.31 10.5937 26.4606 10.5426C26.6112 10.4915 26.7404 10.4162 26.8484 10.3168C26.9563 10.2173 27.0373 10.0952 27.0913 9.95028L29.0046 10.0057C28.9251 10.4347 28.7504 10.8082 28.4805 11.1264C28.2134 11.4418 27.8626 11.6875 27.4279 11.8636C26.9933 12.0369 26.4904 12.1236 25.9194 12.1236ZM33.1499 12.1236C32.4652 12.1236 31.8743 11.9886 31.3771 11.7188C30.8828 11.446 30.5021 11.0582 30.2351 10.5554C29.9709 10.0497 29.8388 9.44886 29.8388 8.75284C29.8388 8.0767 29.9723 7.4858 30.2393 6.98011C30.5064 6.47159 30.8828 6.0767 31.3686 5.79545C31.8544 5.51136 32.4268 5.36932 33.0859 5.36932C33.5518 5.36932 33.978 5.44176 34.3643 5.58665C34.7507 5.73153 35.0845 5.94602 35.3658 6.23011C35.647 6.5142 35.8658 6.86506 36.022 7.28267C36.1783 7.69744 36.2564 8.1733 36.2564 8.71023V9.23011H30.5675V8.01989H34.3175C34.3146 7.7983 34.2621 7.60085 34.1598 7.42756C34.0575 7.25426 33.9169 7.11932 33.7379 7.02273C33.5618 6.9233 33.3587 6.87358 33.1286 6.87358C32.8956 6.87358 32.6868 6.92614 32.5021 7.03125C32.3175 7.13352 32.1712 7.27415 32.0632 7.45312C31.9553 7.62926 31.8984 7.82955 31.8928 8.05398V9.28551C31.8928 9.55256 31.9453 9.78693 32.0504 9.98864C32.1555 10.1875 32.3047 10.3423 32.4979 10.4531C32.6911 10.5639 32.9212 10.6193 33.1882 10.6193C33.3729 10.6193 33.5405 10.5937 33.6911 10.5426C33.8416 10.4915 33.9709 10.4162 34.0788 10.3168C34.1868 10.2173 34.2678 10.0952 34.3217 9.95028L36.2351 10.0057C36.1555 10.4347 35.9808 10.8082 35.7109 11.1264C35.4439 11.4418 35.093 11.6875 34.6584 11.8636C34.2237 12.0369 33.7209 12.1236 33.1499 12.1236ZM39.1999 10.2827L39.2085 7.7983H39.4982L41.3391 5.45455H43.6999L40.9641 8.8125H40.4144L39.1999 10.2827ZM37.3207 12V3.27273H39.4045V12H37.3207ZM41.386 12L39.6729 9.28125L41.0451 7.80256L43.7937 12H41.386Z" fill="#C20000"/>
<path d="M51.7624 3.27273V12H50.7397L45.984 5.14773H45.8988V12H44.842V3.27273H45.8647L50.6374 10.142H50.7227V3.27273H51.7624ZM56.4851 12.1364C55.8544 12.1364 55.3104 11.9972 54.853 11.7188C54.3984 11.4375 54.0476 11.0455 53.8004 10.5426C53.5561 10.0369 53.4339 9.44886 53.4339 8.77841C53.4339 8.10795 53.5561 7.51705 53.8004 7.00568C54.0476 6.49148 54.3913 6.09091 54.8317 5.80398C55.2749 5.5142 55.7919 5.36932 56.3828 5.36932C56.7237 5.36932 57.0604 5.42614 57.3928 5.53977C57.7251 5.65341 58.0277 5.83807 58.3004 6.09375C58.5732 6.34659 58.7905 6.68182 58.9524 7.09943C59.1143 7.51705 59.1953 8.03125 59.1953 8.64205V9.06818H54.1499V8.19886H58.1726C58.1726 7.82955 58.0987 7.5 57.951 7.21023C57.8061 6.92045 57.5987 6.69176 57.3288 6.52415C57.0618 6.35653 56.7464 6.27273 56.3828 6.27273C55.9822 6.27273 55.6357 6.37216 55.343 6.57102C55.0533 6.76705 54.8303 7.02273 54.674 7.33807C54.5178 7.65341 54.4396 7.99148 54.4396 8.35227V8.93182C54.4396 9.42614 54.5249 9.84517 54.6953 10.1889C54.8686 10.5298 55.1087 10.7898 55.4155 10.9688C55.7223 11.1449 56.0788 11.233 56.4851 11.233C56.7493 11.233 56.9879 11.196 57.201 11.1222C57.4169 11.0455 57.603 10.9318 57.7592 10.7812C57.9155 10.6278 58.0362 10.4375 58.1214 10.2102L59.093 10.483C58.9908 10.8125 58.8189 11.1023 58.5774 11.3523C58.3359 11.5994 58.0376 11.7926 57.6825 11.9318C57.3274 12.0682 56.9283 12.1364 56.4851 12.1364ZM62.2081 12L60.2138 5.45455H61.2706L62.6854 10.4659H62.7536L64.1513 5.45455H65.2251L66.6058 10.4489H66.674L68.0888 5.45455H69.1456L67.1513 12H66.1626L64.7308 6.97159H64.6286L63.1967 12H62.2081ZM75.1115 6.92045L74.2081 7.17614C74.1513 7.02557 74.0675 6.87926 73.9567 6.73722C73.8487 6.59233 73.701 6.47301 73.5135 6.37926C73.326 6.28551 73.0859 6.23864 72.7933 6.23864C72.3928 6.23864 72.0589 6.33097 71.7919 6.51562C71.5277 6.69744 71.3956 6.92898 71.3956 7.21023C71.3956 7.46023 71.4865 7.65767 71.6683 7.80256C71.8501 7.94744 72.1342 8.06818 72.5206 8.16477L73.4922 8.40341C74.0774 8.54545 74.5135 8.76278 74.8004 9.0554C75.0874 9.34517 75.2308 9.71875 75.2308 10.1761C75.2308 10.5511 75.1229 10.8864 74.907 11.1818C74.6939 11.4773 74.3956 11.7102 74.0121 11.8807C73.6286 12.0511 73.1825 12.1364 72.674 12.1364C72.0064 12.1364 71.4538 11.9915 71.0163 11.7017C70.5788 11.4119 70.3018 10.9886 70.1854 10.4318L71.1399 10.1932C71.2308 10.5455 71.4027 10.8097 71.6555 10.9858C71.9112 11.1619 72.245 11.25 72.657 11.25C73.1257 11.25 73.4979 11.1506 73.7734 10.9517C74.0518 10.75 74.1911 10.5085 74.1911 10.2273C74.1911 10 74.1115 9.80966 73.9524 9.65625C73.7933 9.5 73.549 9.38352 73.2195 9.30682L72.1286 9.05114C71.5291 8.90909 71.0888 8.68892 70.8075 8.39062C70.5291 8.08949 70.3899 7.71307 70.3899 7.26136C70.3899 6.89205 70.4936 6.56534 70.701 6.28125C70.9112 5.99716 71.1967 5.77415 71.5575 5.61222C71.9212 5.45028 72.3331 5.36932 72.7933 5.36932C73.4411 5.36932 73.9496 5.51136 74.3189 5.79545C74.6911 6.07955 74.9553 6.45455 75.1115 6.92045Z" fill="white"/>
<path d="M19.3878 6.12358C19.3395 5.9446 19.2685 5.78693 19.1747 5.65057C19.081 5.51136 18.9659 5.39347 18.8295 5.29688C18.6932 5.20028 18.5369 5.12784 18.3608 5.07955C18.1847 5.02841 17.9915 5.00284 17.7812 5.00284C17.358 5.00284 16.9915 5.10511 16.6818 5.30966C16.375 5.5142 16.1378 5.8125 15.9702 6.20455C15.8026 6.59375 15.7188 7.06676 15.7188 7.62358C15.7188 8.18324 15.7997 8.66051 15.9616 9.0554C16.1236 9.45028 16.358 9.75142 16.6648 9.95881C16.9716 10.1662 17.3438 10.2699 17.7812 10.2699C18.1676 10.2699 18.4943 10.2074 18.7614 10.0824C19.0313 9.95455 19.2358 9.77415 19.375 9.54119C19.5142 9.30824 19.5838 9.03409 19.5838 8.71875L19.9759 8.76562H17.8537V7.22727H21.6165V8.3821C21.6165 9.16335 21.4503 9.83239 21.1179 10.3892C20.7884 10.946 20.3338 11.3736 19.7543 11.6719C19.1776 11.9702 18.5142 12.1193 17.7642 12.1193C16.9318 12.1193 16.2003 11.9389 15.5696 11.5781C14.9389 11.2173 14.4474 10.7031 14.0952 10.0355C13.7429 9.36506 13.5668 8.5696 13.5668 7.64915C13.5668 6.93324 13.6733 6.2983 13.8864 5.74432C14.0994 5.1875 14.3963 4.71591 14.777 4.32955C15.1605 3.94318 15.6037 3.65057 16.1065 3.4517C16.6122 3.25284 17.1563 3.15341 17.7386 3.15341C18.2443 3.15341 18.7145 3.22585 19.1491 3.37074C19.5866 3.51562 19.973 3.72017 20.3082 3.98438C20.6463 4.24858 20.9205 4.5625 21.1307 4.92614C21.3409 5.28977 21.4716 5.68892 21.5227 6.12358H19.3878ZM25.9194 12.1236C25.2347 12.1236 24.6438 11.9886 24.1467 11.7188C23.6523 11.446 23.2717 11.0582 23.0046 10.5554C22.7404 10.0497 22.6083 9.44886 22.6083 8.75284C22.6083 8.0767 22.7418 7.4858 23.0089 6.98011C23.2759 6.47159 23.6523 6.0767 24.1381 5.79545C24.6239 5.51136 25.1964 5.36932 25.8555 5.36932C26.3214 5.36932 26.7475 5.44176 27.1339 5.58665C27.5202 5.73153 27.854 5.94602 28.1353 6.23011C28.4165 6.5142 28.6353 6.86506 28.7915 7.28267C28.9478 7.69744 29.0259 8.1733 29.0259 8.71023V9.23011H23.337V8.01989H27.087C27.0842 7.7983 27.0316 7.60085 26.9293 7.42756C26.8271 7.25426 26.6864 7.11932 26.5075 7.02273C26.3313 6.9233 26.1282 6.87358 25.8981 6.87358C25.6651 6.87358 25.4563 6.92614 25.2717 7.03125C25.087 7.13352 24.9407 7.27415 24.8327 7.45312C24.7248 7.62926 24.668 7.82955 24.6623 8.05398V9.28551C24.6623 9.55256 24.7148 9.78693 24.82 9.98864C24.9251 10.1875 25.0742 10.3423 25.2674 10.4531C25.4606 10.5639 25.6907 10.6193 25.9577 10.6193C26.1424 10.6193 26.31 10.5937 26.4606 10.5426C26.6112 10.4915 26.7404 10.4162 26.8484 10.3168C26.9563 10.2173 27.0373 10.0952 27.0913 9.95028L29.0046 10.0057C28.9251 10.4347 28.7504 10.8082 28.4805 11.1264C28.2134 11.4418 27.8626 11.6875 27.4279 11.8636C26.9933 12.0369 26.4904 12.1236 25.9194 12.1236ZM33.1499 12.1236C32.4652 12.1236 31.8743 11.9886 31.3771 11.7188C30.8828 11.446 30.5021 11.0582 30.2351 10.5554C29.9709 10.0497 29.8388 9.44886 29.8388 8.75284C29.8388 8.0767 29.9723 7.4858 30.2393 6.98011C30.5064 6.47159 30.8828 6.0767 31.3686 5.79545C31.8544 5.51136 32.4268 5.36932 33.0859 5.36932C33.5518 5.36932 33.978 5.44176 34.3643 5.58665C34.7507 5.73153 35.0845 5.94602 35.3658 6.23011C35.647 6.5142 35.8658 6.86506 36.022 7.28267C36.1783 7.69744 36.2564 8.1733 36.2564 8.71023V9.23011H30.5675V8.01989H34.3175C34.3146 7.7983 34.2621 7.60085 34.1598 7.42756C34.0575 7.25426 33.9169 7.11932 33.7379 7.02273C33.5618 6.9233 33.3587 6.87358 33.1286 6.87358C32.8956 6.87358 32.6868 6.92614 32.5021 7.03125C32.3175 7.13352 32.1712 7.27415 32.0632 7.45312C31.9553 7.62926 31.8984 7.82955 31.8928 8.05398V9.28551C31.8928 9.55256 31.9453 9.78693 32.0504 9.98864C32.1555 10.1875 32.3047 10.3423 32.4979 10.4531C32.6911 10.5639 32.9212 10.6193 33.1882 10.6193C33.3729 10.6193 33.5405 10.5937 33.6911 10.5426C33.8416 10.4915 33.9709 10.4162 34.0788 10.3168C34.1868 10.2173 34.2678 10.0952 34.3217 9.95028L36.2351 10.0057C36.1555 10.4347 35.9808 10.8082 35.7109 11.1264C35.4439 11.4418 35.093 11.6875 34.6584 11.8636C34.2237 12.0369 33.7209 12.1236 33.1499 12.1236ZM39.1999 10.2827L39.2085 7.7983H39.4982L41.3391 5.45455H43.6999L40.9641 8.8125H40.4144L39.1999 10.2827ZM37.3207 12V3.27273H39.4045V12H37.3207ZM41.386 12L39.6729 9.28125L41.0451 7.80256L43.7937 12H41.386Z" fill="#C20000"/>
<path d="M51.7624 3.27273V12H50.7397L45.984 5.14773H45.8988V12H44.842V3.27273H45.8647L50.6374 10.142H50.7227V3.27273H51.7624ZM56.4851 12.1364C55.8544 12.1364 55.3104 11.9972 54.853 11.7188C54.3984 11.4375 54.0476 11.0455 53.8004 10.5426C53.5561 10.0369 53.4339 9.44886 53.4339 8.77841C53.4339 8.10795 53.5561 7.51705 53.8004 7.00568C54.0476 6.49148 54.3913 6.09091 54.8317 5.80398C55.2749 5.5142 55.7919 5.36932 56.3828 5.36932C56.7237 5.36932 57.0604 5.42614 57.3928 5.53977C57.7251 5.65341 58.0277 5.83807 58.3004 6.09375C58.5732 6.34659 58.7905 6.68182 58.9524 7.09943C59.1143 7.51705 59.1953 8.03125 59.1953 8.64205V9.06818H54.1499V8.19886H58.1726C58.1726 7.82955 58.0987 7.5 57.951 7.21023C57.8061 6.92045 57.5987 6.69176 57.3288 6.52415C57.0618 6.35653 56.7464 6.27273 56.3828 6.27273C55.9822 6.27273 55.6357 6.37216 55.343 6.57102C55.0533 6.76705 54.8303 7.02273 54.674 7.33807C54.5178 7.65341 54.4396 7.99148 54.4396 8.35227V8.93182C54.4396 9.42614 54.5249 9.84517 54.6953 10.1889C54.8686 10.5298 55.1087 10.7898 55.4155 10.9688C55.7223 11.1449 56.0788 11.233 56.4851 11.233C56.7493 11.233 56.9879 11.196 57.201 11.1222C57.4169 11.0455 57.603 10.9318 57.7592 10.7812C57.9155 10.6278 58.0362 10.4375 58.1214 10.2102L59.093 10.483C58.9908 10.8125 58.8189 11.1023 58.5774 11.3523C58.3359 11.5994 58.0376 11.7926 57.6825 11.9318C57.3274 12.0682 56.9283 12.1364 56.4851 12.1364ZM62.2081 12L60.2138 5.45455H61.2706L62.6854 10.4659H62.7536L64.1513 5.45455H65.2251L66.6058 10.4489H66.674L68.0888 5.45455H69.1456L67.1513 12H66.1626L64.7308 6.97159H64.6286L63.1967 12H62.2081ZM75.1115 6.92045L74.2081 7.17614C74.1513 7.02557 74.0675 6.87926 73.9567 6.73722C73.8487 6.59233 73.701 6.47301 73.5135 6.37926C73.326 6.28551 73.0859 6.23864 72.7933 6.23864C72.3928 6.23864 72.0589 6.33097 71.7919 6.51562C71.5277 6.69744 71.3956 6.92898 71.3956 7.21023C71.3956 7.46023 71.4865 7.65767 71.6683 7.80256C71.8501 7.94744 72.1342 8.06818 72.5206 8.16477L73.4922 8.40341C74.0774 8.54545 74.5135 8.76278 74.8004 9.0554C75.0874 9.34517 75.2308 9.71875 75.2308 10.1761C75.2308 10.5511 75.1229 10.8864 74.907 11.1818C74.6939 11.4773 74.3956 11.7102 74.0121 11.8807C73.6286 12.0511 73.1825 12.1364 72.674 12.1364C72.0064 12.1364 71.4538 11.9915 71.0163 11.7017C70.5788 11.4119 70.3018 10.9886 70.1854 10.4318L71.1399 10.1932C71.2308 10.5455 71.4027 10.8097 71.6555 10.9858C71.9112 11.1619 72.245 11.25 72.657 11.25C73.1257 11.25 73.4979 11.1506 73.7734 10.9517C74.0518 10.75 74.1911 10.5085 74.1911 10.2273C74.1911 10 74.1115 9.80966 73.9524 9.65625C73.7933 9.5 73.549 9.38352 73.2195 9.30682L72.1286 9.05114C71.5291 8.90909 71.0888 8.68892 70.8075 8.39062C70.5291 8.08949 70.3899 7.71307 70.3899 7.26136C70.3899 6.89205 70.4936 6.56534 70.701 6.28125C70.9112 5.99716 71.1967 5.77415 71.5575 5.61222C71.9212 5.45028 72.3331 5.36932 72.7933 5.36932C73.4411 5.36932 73.9496 5.51136 74.3189 5.79545C74.6911 6.07955 74.9553 6.45455 75.1115 6.92045Z" fill="white"/>
<path d="M19.3878 6.12358C19.3395 5.9446 19.2685 5.78693 19.1747 5.65057C19.081 5.51136 18.9659 5.39347 18.8295 5.29688C18.6932 5.20028 18.5369 5.12784 18.3608 5.07955C18.1847 5.02841 17.9915 5.00284 17.7812 5.00284C17.358 5.00284 16.9915 5.10511 16.6818 5.30966C16.375 5.5142 16.1378 5.8125 15.9702 6.20455C15.8026 6.59375 15.7188 7.06676 15.7188 7.62358C15.7188 8.18324 15.7997 8.66051 15.9616 9.0554C16.1236 9.45028 16.358 9.75142 16.6648 9.95881C16.9716 10.1662 17.3438 10.2699 17.7812 10.2699C18.1676 10.2699 18.4943 10.2074 18.7614 10.0824C19.0313 9.95455 19.2358 9.77415 19.375 9.54119C19.5142 9.30824 19.5838 9.03409 19.5838 8.71875L19.9759 8.76562H17.8537V7.22727H21.6165V8.3821C21.6165 9.16335 21.4503 9.83239 21.1179 10.3892C20.7884 10.946 20.3338 11.3736 19.7543 11.6719C19.1776 11.9702 18.5142 12.1193 17.7642 12.1193C16.9318 12.1193 16.2003 11.9389 15.5696 11.5781C14.9389 11.2173 14.4474 10.7031 14.0952 10.0355C13.7429 9.36506 13.5668 8.5696 13.5668 7.64915C13.5668 6.93324 13.6733 6.2983 13.8864 5.74432C14.0994 5.1875 14.3963 4.71591 14.777 4.32955C15.1605 3.94318 15.6037 3.65057 16.1065 3.4517C16.6122 3.25284 17.1563 3.15341 17.7386 3.15341C18.2443 3.15341 18.7145 3.22585 19.1491 3.37074C19.5866 3.51562 19.973 3.72017 20.3082 3.98438C20.6463 4.24858 20.9205 4.5625 21.1307 4.92614C21.3409 5.28977 21.4716 5.68892 21.5227 6.12358H19.3878ZM25.9194 12.1236C25.2347 12.1236 24.6438 11.9886 24.1467 11.7188C23.6523 11.446 23.2717 11.0582 23.0046 10.5554C22.7404 10.0497 22.6083 9.44886 22.6083 8.75284C22.6083 8.0767 22.7418 7.4858 23.0089 6.98011C23.2759 6.47159 23.6523 6.0767 24.1381 5.79545C24.6239 5.51136 25.1964 5.36932 25.8555 5.36932C26.3214 5.36932 26.7475 5.44176 27.1339 5.58665C27.5202 5.73153 27.854 5.94602 28.1353 6.23011C28.4165 6.5142 28.6353 6.86506 28.7915 7.28267C28.9478 7.69744 29.0259 8.1733 29.0259 8.71023V9.23011H23.337V8.01989H27.087C27.0842 7.7983 27.0316 7.60085 26.9293 7.42756C26.8271 7.25426 26.6864 7.11932 26.5075 7.02273C26.3313 6.9233 26.1282 6.87358 25.8981 6.87358C25.6651 6.87358 25.4563 6.92614 25.2717 7.03125C25.087 7.13352 24.9407 7.27415 24.8327 7.45312C24.7248 7.62926 24.668 7.82955 24.6623 8.05398V9.28551C24.6623 9.55256 24.7148 9.78693 24.82 9.98864C24.9251 10.1875 25.0742 10.3423 25.2674 10.4531C25.4606 10.5639 25.6907 10.6193 25.9577 10.6193C26.1424 10.6193 26.31 10.5937 26.4606 10.5426C26.6112 10.4915 26.7404 10.4162 26.8484 10.3168C26.9563 10.2173 27.0373 10.0952 27.0913 9.95028L29.0046 10.0057C28.9251 10.4347 28.7504 10.8082 28.4805 11.1264C28.2134 11.4418 27.8626 11.6875 27.4279 11.8636C26.9933 12.0369 26.4904 12.1236 25.9194 12.1236ZM33.1499 12.1236C32.4652 12.1236 31.8743 11.9886 31.3771 11.7188C30.8828 11.446 30.5021 11.0582 30.2351 10.5554C29.9709 10.0497 29.8388 9.44886 29.8388 8.75284C29.8388 8.0767 29.9723 7.4858 30.2393 6.98011C30.5064 6.47159 30.8828 6.0767 31.3686 5.79545C31.8544 5.51136 32.4268 5.36932 33.0859 5.36932C33.5518 5.36932 33.978 5.44176 34.3643 5.58665C34.7507 5.73153 35.0845 5.94602 35.3658 6.23011C35.647 6.5142 35.8658 6.86506 36.022 7.28267C36.1783 7.69744 36.2564 8.1733 36.2564 8.71023V9.23011H30.5675V8.01989H34.3175C34.3146 7.7983 34.2621 7.60085 34.1598 7.42756C34.0575 7.25426 33.9169 7.11932 33.7379 7.02273C33.5618 6.9233 33.3587 6.87358 33.1286 6.87358C32.8956 6.87358 32.6868 6.92614 32.5021 7.03125C32.3175 7.13352 32.1712 7.27415 32.0632 7.45312C31.9553 7.62926 31.8984 7.82955 31.8928 8.05398V9.28551C31.8928 9.55256 31.9453 9.78693 32.0504 9.98864C32.1555 10.1875 32.3047 10.3423 32.4979 10.4531C32.6911 10.5639 32.9212 10.6193 33.1882 10.6193C33.3729 10.6193 33.5405 10.5937 33.6911 10.5426C33.8416 10.4915 33.9709 10.4162 34.0788 10.3168C34.1868 10.2173 34.2678 10.0952 34.3217 9.95028L36.2351 10.0057C36.1555 10.4347 35.9808 10.8082 35.7109 11.1264C35.4439 11.4418 35.093 11.6875 34.6584 11.8636C34.2237 12.0369 33.7209 12.1236 33.1499 12.1236ZM39.1999 10.2827L39.2085 7.7983H39.4982L41.3391 5.45455H43.6999L40.9641 8.8125H40.4144L39.1999 10.2827ZM37.3207 12V3.27273H39.4045V12H37.3207ZM41.386 12L39.6729 9.28125L41.0451 7.80256L43.7937 12H41.386Z" fill="#C20000"/>
<path d="M51.7624 3.27273V12H50.7397L45.984 5.14773H45.8988V12H44.842V3.27273H45.8647L50.6374 10.142H50.7227V3.27273H51.7624ZM56.4851 12.1364C55.8544 12.1364 55.3104 11.9972 54.853 11.7188C54.3984 11.4375 54.0476 11.0455 53.8004 10.5426C53.5561 10.0369 53.4339 9.44886 53.4339 8.77841C53.4339 8.10795 53.5561 7.51705 53.8004 7.00568C54.0476 6.49148 54.3913 6.09091 54.8317 5.80398C55.2749 5.5142 55.7919 5.36932 56.3828 5.36932C56.7237 5.36932 57.0604 5.42614 57.3928 5.53977C57.7251 5.65341 58.0277 5.83807 58.3004 6.09375C58.5732 6.34659 58.7905 6.68182 58.9524 7.09943C59.1143 7.51705 59.1953 8.03125 59.1953 8.64205V9.06818H54.1499V8.19886H58.1726C58.1726 7.82955 58.0987 7.5 57.951 7.21023C57.8061 6.92045 57.5987 6.69176 57.3288 6.52415C57.0618 6.35653 56.7464 6.27273 56.3828 6.27273C55.9822 6.27273 55.6357 6.37216 55.343 6.57102C55.0533 6.76705 54.8303 7.02273 54.674 7.33807C54.5178 7.65341 54.4396 7.99148 54.4396 8.35227V8.93182C54.4396 9.42614 54.5249 9.84517 54.6953 10.1889C54.8686 10.5298 55.1087 10.7898 55.4155 10.9688C55.7223 11.1449 56.0788 11.233 56.4851 11.233C56.7493 11.233 56.9879 11.196 57.201 11.1222C57.4169 11.0455 57.603 10.9318 57.7592 10.7812C57.9155 10.6278 58.0362 10.4375 58.1214 10.2102L59.093 10.483C58.9908 10.8125 58.8189 11.1023 58.5774 11.3523C58.3359 11.5994 58.0376 11.7926 57.6825 11.9318C57.3274 12.0682 56.9283 12.1364 56.4851 12.1364ZM62.2081 12L60.2138 5.45455H61.2706L62.6854 10.4659H62.7536L64.1513 5.45455H65.2251L66.6058 10.4489H66.674L68.0888 5.45455H69.1456L67.1513 12H66.1626L64.7308 6.97159H64.6286L63.1967 12H62.2081ZM75.1115 6.92045L74.2081 7.17614C74.1513 7.02557 74.0675 6.87926 73.9567 6.73722C73.8487 6.59233 73.701 6.47301 73.5135 6.37926C73.326 6.28551 73.0859 6.23864 72.7933 6.23864C72.3928 6.23864 72.0589 6.33097 71.7919 6.51562C71.5277 6.69744 71.3956 6.92898 71.3956 7.21023C71.3956 7.46023 71.4865 7.65767 71.6683 7.80256C71.8501 7.94744 72.1342 8.06818 72.5206 8.16477L73.4922 8.40341C74.0774 8.54545 74.5135 8.76278 74.8004 9.0554C75.0874 9.34517 75.2308 9.71875 75.2308 10.1761C75.2308 10.5511 75.1229 10.8864 74.907 11.1818C74.6939 11.4773 74.3956 11.7102 74.0121 11.8807C73.6286 12.0511 73.1825 12.1364 72.674 12.1364C72.0064 12.1364 71.4538 11.9915 71.0163 11.7017C70.5788 11.4119 70.3018 10.9886 70.1854 10.4318L71.1399 10.1932C71.2308 10.5455 71.4027 10.8097 71.6555 10.9858C71.9112 11.1619 72.245 11.25 72.657 11.25C73.1257 11.25 73.4979 11.1506 73.7734 10.9517C74.0518 10.75 74.1911 10.5085 74.1911 10.2273C74.1911 10 74.1115 9.80966 73.9524 9.65625C73.7933 9.5 73.549 9.38352 73.2195 9.30682L72.1286 9.05114C71.5291 8.90909 71.0888 8.68892 70.8075 8.39062C70.5291 8.08949 70.3899 7.71307 70.3899 7.26136C70.3899 6.89205 70.4936 6.56534 70.701 6.28125C70.9112 5.99716 71.1967 5.77415 71.5575 5.61222C71.9212 5.45028 72.3331 5.36932 72.7933 5.36932C73.4411 5.36932 73.9496 5.51136 74.3189 5.79545C74.6911 6.07955 74.9553 6.45455 75.1115 6.92045Z" fill="white"/>
<path d="M4.29688 7.01199C4.48672 7.01199 4.64062 6.86722 4.64062 6.68863C4.64062 6.51005 4.48672 6.36528 4.29688 6.36528C4.10703 6.36528 3.95312 6.51005 3.95312 6.68863C3.95312 6.86722 4.10703 7.01199 4.29688 7.01199Z" fill="white"/>
<path d="M6.70312 7.01199C6.89297 7.01199 7.04688 6.86722 7.04688 6.68863C7.04688 6.51005 6.89297 6.36528 6.70312 6.36528C6.51328 6.36528 6.35938 6.51005 6.35938 6.68863C6.35938 6.86722 6.51328 7.01199 6.70312 7.01199Z" fill="white"/>
<path d="M9.28125 10.7305L8.02227 9.76048L6.75898 10.7305L5.5 9.76048L4.24102 10.7305L2.97773 9.76048L1.71875 10.7305V6.8503C1.71875 5.90695 2.11713 5.00224 2.82625 4.3352C3.53537 3.66815 4.49715 3.29341 5.5 3.29341C6.50285 3.29341 7.46463 3.66815 8.17375 4.3352C8.88287 5.00224 9.28125 5.90695 9.28125 6.8503V10.7305Z" stroke="white" stroke-linecap="round" stroke-linejoin="round"/>
<path d="M19.3878 6.12358C19.3395 5.9446 19.2685 5.78693 19.1747 5.65057C19.081 5.51136 18.9659 5.39347 18.8295 5.29688C18.6932 5.20028 18.5369 5.12784 18.3608 5.07955C18.1847 5.02841 17.9915 5.00284 17.7812 5.00284C17.358 5.00284 16.9915 5.10511 16.6818 5.30966C16.375 5.5142 16.1378 5.8125 15.9702 6.20455C15.8026 6.59375 15.7188 7.06676 15.7188 7.62358C15.7188 8.18324 15.7997 8.66051 15.9616 9.0554C16.1236 9.45028 16.358 9.75142 16.6648 9.95881C16.9716 10.1662 17.3438 10.2699 17.7812 10.2699C18.1676 10.2699 18.4943 10.2074 18.7614 10.0824C19.0313 9.95455 19.2358 9.77415 19.375 9.54119C19.5142 9.30824 19.5838 9.03409 19.5838 8.71875L19.9759 8.76562H17.8537V7.22727H21.6165V8.3821C21.6165 9.16335 21.4503 9.83239 21.1179 10.3892C20.7884 10.946 20.3338 11.3736 19.7543 11.6719C19.1776 11.9702 18.5142 12.1193 17.7642 12.1193C16.9318 12.1193 16.2003 11.9389 15.5696 11.5781C14.9389 11.2173 14.4474 10.7031 14.0952 10.0355C13.7429 9.36506 13.5668 8.5696 13.5668 7.64915C13.5668 6.93324 13.6733 6.2983 13.8864 5.74432C14.0994 5.1875 14.3963 4.71591 14.777 4.32955C15.1605 3.94318 15.6037 3.65057 16.1065 3.4517C16.6122 3.25284 17.1563 3.15341 17.7386 3.15341C18.2443 3.15341 18.7145 3.22585 19.1491 3.37074C19.5866 3.51562 19.973 3.72017 20.3082 3.98438C20.6463 4.24858 20.9205 4.5625 21.1307 4.92614C21.3409 5.28977 21.4716 5.68892 21.5227 6.12358H19.3878ZM25.9194 12.1236C25.2347 12.1236 24.6438 11.9886 24.1467 11.7188C23.6523 11.446 23.2717 11.0582 23.0046 10.5554C22.7404 10.0497 22.6083 9.44886 22.6083 8.75284C22.6083 8.0767 22.7418 7.4858 23.0089 6.98011C23.2759 6.47159 23.6523 6.0767 24.1381 5.79545C24.6239 5.51136 25.1964 5.36932 25.8555 5.36932C26.3214 5.36932 26.7475 5.44176 27.1339 5.58665C27.5202 5.73153 27.854 5.94602 28.1353 6.23011C28.4165 6.5142 28.6353 6.86506 28.7915 7.28267C28.9478 7.69744 29.0259 8.1733 29.0259 8.71023V9.23011H23.337V8.01989H27.087C27.0842 7.7983 27.0316 7.60085 26.9293 7.42756C26.8271 7.25426 26.6864 7.11932 26.5075 7.02273C26.3313 6.9233 26.1282 6.87358 25.8981 6.87358C25.6651 6.87358 25.4563 6.92614 25.2717 7.03125C25.087 7.13352 24.9407 7.27415 24.8327 7.45312C24.7248 7.62926 24.668 7.82955 24.6623 8.05398V9.28551C24.6623 9.55256 24.7148 9.78693 24.82 9.98864C24.9251 10.1875 25.0742 10.3423 25.2674 10.4531C25.4606 10.5639 25.6907 10.6193 25.9577 10.6193C26.1424 10.6193 26.31 10.5937 26.4606 10.5426C26.6112 10.4915 26.7404 10.4162 26.8484 10.3168C26.9563 10.2173 27.0373 10.0952 27.0913 9.95028L29.0046 10.0057C28.9251 10.4347 28.7504 10.8082 28.4805 11.1264C28.2134 11.4418 27.8626 11.6875 27.4279 11.8636C26.9933 12.0369 26.4904 12.1236 25.9194 12.1236ZM33.1499 12.1236C32.4652 12.1236 31.8743 11.9886 31.3771 11.7188C30.8828 11.446 30.5021 11.0582 30.2351 10.5554C29.9709 10.0497 29.8388 9.44886 29.8388 8.75284C29.8388 8.0767 29.9723 7.4858 30.2393 6.98011C30.5064 6.47159 30.8828 6.0767 31.3686 5.79545C31.8544 5.51136 32.4268 5.36932 33.0859 5.36932C33.5518 5.36932 33.978 5.44176 34.3643 5.58665C34.7507 5.73153 35.0845 5.94602 35.3658 6.23011C35.647 6.5142 35.8658 6.86506 36.022 7.28267C36.1783 7.69744 36.2564 8.1733 36.2564 8.71023V9.23011H30.5675V8.01989H34.3175C34.3146 7.7983 34.2621 7.60085 34.1598 7.42756C34.0575 7.25426 33.9169 7.11932 33.7379 7.02273C33.5618 6.9233 33.3587 6.87358 33.1286 6.87358C32.8956 6.87358 32.6868 6.92614 32.5021 7.03125C32.3175 7.13352 32.1712 7.27415 32.0632 7.45312C31.9553 7.62926 31.8984 7.82955 31.8928 8.05398V9.28551C31.8928 9.55256 31.9453 9.78693 32.0504 9.98864C32.1555 10.1875 32.3047 10.3423 32.4979 10.4531C32.6911 10.5639 32.9212 10.6193 33.1882 10.6193C33.3729 10.6193 33.5405 10.5937 33.6911 10.5426C33.8416 10.4915 33.9709 10.4162 34.0788 10.3168C34.1868 10.2173 34.2678 10.0952 34.3217 9.95028L36.2351 10.0057C36.1555 10.4347 35.9808 10.8082 35.7109 11.1264C35.4439 11.4418 35.093 11.6875 34.6584 11.8636C34.2237 12.0369 33.7209 12.1236 33.1499 12.1236ZM39.1999 10.2827L39.2085 7.7983H39.4982L41.3391 5.45455H43.6999L40.9641 8.8125H40.4144L39.1999 10.2827ZM37.3207 12V3.27273H39.4045V12H37.3207ZM41.386 12L39.6729 9.28125L41.0451 7.80256L43.7937 12H41.386Z" fill="#C20000"/>
<path d="M51.7624 3.27273V12H50.7397L45.984 5.14773H45.8988V12H44.842V3.27273H45.8647L50.6374 10.142H50.7227V3.27273H51.7624ZM56.4851 12.1364C55.8544 12.1364 55.3104 11.9972 54.853 11.7188C54.3984 11.4375 54.0476 11.0455 53.8004 10.5426C53.5561 10.0369 53.4339 9.44886 53.4339 8.77841C53.4339 8.10795 53.5561 7.51705 53.8004 7.00568C54.0476 6.49148 54.3913 6.09091 54.8317 5.80398C55.2749 5.5142 55.7919 5.36932 56.3828 5.36932C56.7237 5.36932 57.0604 5.42614 57.3928 5.53977C57.7251 5.65341 58.0277 5.83807 58.3004 6.09375C58.5732 6.34659 58.7905 6.68182 58.9524 7.09943C59.1143 7.51705 59.1953 8.03125 59.1953 8.64205V9.06818H54.1499V8.19886H58.1726C58.1726 7.82955 58.0987 7.5 57.951 7.21023C57.8061 6.92045 57.5987 6.69176 57.3288 6.52415C57.0618 6.35653 56.7464 6.27273 56.3828 6.27273C55.9822 6.27273 55.6357 6.37216 55.343 6.57102C55.0533 6.76705 54.8303 7.02273 54.674 7.33807C54.5178 7.65341 54.4396 7.99148 54.4396 8.35227V8.93182C54.4396 9.42614 54.5249 9.84517 54.6953 10.1889C54.8686 10.5298 55.1087 10.7898 55.4155 10.9688C55.7223 11.1449 56.0788 11.233 56.4851 11.233C56.7493 11.233 56.9879 11.196 57.201 11.1222C57.4169 11.0455 57.603 10.9318 57.7592 10.7812C57.9155 10.6278 58.0362 10.4375 58.1214 10.2102L59.093 10.483C58.9908 10.8125 58.8189 11.1023 58.5774 11.3523C58.3359 11.5994 58.0376 11.7926 57.6825 11.9318C57.3274 12.0682 56.9283 12.1364 56.4851 12.1364ZM62.2081 12L60.2138 5.45455H61.2706L62.6854 10.4659H62.7536L64.1513 5.45455H65.2251L66.6058 10.4489H66.674L68.0888 5.45455H69.1456L67.1513 12H66.1626L64.7308 6.97159H64.6286L63.1967 12H62.2081ZM75.1115 6.92045L74.2081 7.17614C74.1513 7.02557 74.0675 6.87926 73.9567 6.73722C73.8487 6.59233 73.701 6.47301 73.5135 6.37926C73.326 6.28551 73.0859 6.23864 72.7933 6.23864C72.3928 6.23864 72.0589 6.33097 71.7919 6.51562C71.5277 6.69744 71.3956 6.92898 71.3956 7.21023C71.3956 7.46023 71.4865 7.65767 71.6683 7.80256C71.8501 7.94744 72.1342 8.06818 72.5206 8.16477L73.4922 8.40341C74.0774 8.54545 74.5135 8.76278 74.8004 9.0554C75.0874 9.34517 75.2308 9.71875 75.2308 10.1761C75.2308 10.5511 75.1229 10.8864 74.907 11.1818C74.6939 11.4773 74.3956 11.7102 74.0121 11.8807C73.6286 12.0511 73.1825 12.1364 72.674 12.1364C72.0064 12.1364 71.4538 11.9915 71.0163 11.7017C70.5788 11.4119 70.3018 10.9886 70.1854 10.4318L71.1399 10.1932C71.2308 10.5455 71.4027 10.8097 71.6555 10.9858C71.9112 11.1619 72.245 11.25 72.657 11.25C73.1257 11.25 73.4979 11.1506 73.7734 10.9517C74.0518 10.75 74.1911 10.5085 74.1911 10.2273C74.1911 10 74.1115 9.80966 73.9524 9.65625C73.7933 9.5 73.549 9.38352 73.2195 9.30682L72.1286 9.05114C71.5291 8.90909 71.0888 8.68892 70.8075 8.39062C70.5291 8.08949 70.3899 7.71307 70.3899 7.26136C70.3899 6.89205 70.4936 6.56534 70.701 6.28125C70.9112 5.99716 71.1967 5.77415 71.5575 5.61222C71.9212 5.45028 72.3331 5.36932 72.7933 5.36932C73.4411 5.36932 73.9496 5.51136 74.3189 5.79545C74.6911 6.07955 74.9553 6.45455 75.1115 6.92045Z" fill="white"/>
</svg>
